<mxfile host="app.diagrams.net" agent="Mozilla/5.0 (Windows NT 10.0; Win64; x64) AppleWebKit/537.36 (KHTML, like Gecko) Chrome/131.0.0.0 Safari/537.36" version="24.8.6">
  <diagram name="Сторінка-1" id="DdHyaqeTVyhzK7YeXGCJ">
    <mxGraphModel dx="426" dy="533" grid="1" gridSize="10" guides="1" tooltips="1" connect="1" arrows="1" fold="1" page="1" pageScale="1" pageWidth="827" pageHeight="1169" math="0" shadow="0">
      <root>
        <mxCell id="0" />
        <mxCell id="1" parent="0" />
        <mxCell id="Ts0ha_U5xYNXK3tebFm2-3" value="" style="edgeStyle=orthogonalEdgeStyle;rounded=0;orthogonalLoop=1;jettySize=auto;html=1;" edge="1" parent="1" source="Ts0ha_U5xYNXK3tebFm2-1" target="Ts0ha_U5xYNXK3tebFm2-2">
          <mxGeometry relative="1" as="geometry" />
        </mxCell>
        <mxCell id="Ts0ha_U5xYNXK3tebFm2-1" value="Start" style="ellipse;whiteSpace=wrap;html=1;" vertex="1" parent="1">
          <mxGeometry x="310" y="30" width="120" height="80" as="geometry" />
        </mxCell>
        <mxCell id="Ts0ha_U5xYNXK3tebFm2-5" value="" style="edgeStyle=orthogonalEdgeStyle;rounded=0;orthogonalLoop=1;jettySize=auto;html=1;" edge="1" parent="1" source="Ts0ha_U5xYNXK3tebFm2-2" target="Ts0ha_U5xYNXK3tebFm2-4">
          <mxGeometry relative="1" as="geometry" />
        </mxCell>
        <mxCell id="Ts0ha_U5xYNXK3tebFm2-2" value="&lt;div&gt;a = -0.5;&lt;/div&gt;&lt;div&gt;&lt;span style=&quot;background-color: initial;&quot;&gt;b = 1.7;&lt;/span&gt;&lt;/div&gt;&lt;div&gt;&lt;span style=&quot;background-color: initial;&quot;&gt;t = 0.44;&lt;/span&gt;&lt;/div&gt;" style="whiteSpace=wrap;html=1;" vertex="1" parent="1">
          <mxGeometry x="310" y="150" width="120" height="60" as="geometry" />
        </mxCell>
        <mxCell id="Ts0ha_U5xYNXK3tebFm2-7" value="" style="edgeStyle=orthogonalEdgeStyle;rounded=0;orthogonalLoop=1;jettySize=auto;html=1;" edge="1" parent="1" source="Ts0ha_U5xYNXK3tebFm2-4" target="Ts0ha_U5xYNXK3tebFm2-6">
          <mxGeometry relative="1" as="geometry" />
        </mxCell>
        <mxCell id="Ts0ha_U5xYNXK3tebFm2-4" value="&lt;div&gt;y1 = exp(-b*t)*sin(a*t + b);&lt;/div&gt;&lt;div&gt;&amp;nbsp; &amp;nbsp; &amp;nbsp;y2 = sqrt(abs(b*t + a));&lt;/div&gt;&lt;div&gt;&amp;nbsp; &amp;nbsp; &amp;nbsp;y = y1 - y2;&lt;/div&gt;" style="whiteSpace=wrap;html=1;" vertex="1" parent="1">
          <mxGeometry x="280" y="250" width="180" height="60" as="geometry" />
        </mxCell>
        <mxCell id="Ts0ha_U5xYNXK3tebFm2-9" value="" style="edgeStyle=orthogonalEdgeStyle;rounded=0;orthogonalLoop=1;jettySize=auto;html=1;" edge="1" parent="1" source="Ts0ha_U5xYNXK3tebFm2-6" target="Ts0ha_U5xYNXK3tebFm2-8">
          <mxGeometry relative="1" as="geometry" />
        </mxCell>
        <mxCell id="Ts0ha_U5xYNXK3tebFm2-6" value="&lt;div&gt;x = a*t*t*cos(2*t);&lt;/div&gt;&lt;div&gt;&amp;nbsp; &amp;nbsp; s = b*sin(x) - 1;&lt;/div&gt;" style="whiteSpace=wrap;html=1;" vertex="1" parent="1">
          <mxGeometry x="310" y="350" width="120" height="60" as="geometry" />
        </mxCell>
        <mxCell id="Ts0ha_U5xYNXK3tebFm2-11" value="" style="edgeStyle=orthogonalEdgeStyle;rounded=0;orthogonalLoop=1;jettySize=auto;html=1;" edge="1" parent="1" source="Ts0ha_U5xYNXK3tebFm2-8" target="Ts0ha_U5xYNXK3tebFm2-10">
          <mxGeometry relative="1" as="geometry" />
        </mxCell>
        <mxCell id="Ts0ha_U5xYNXK3tebFm2-8" value="output y, s" style="shape=parallelogram;perimeter=parallelogramPerimeter;whiteSpace=wrap;html=1;fixedSize=1;" vertex="1" parent="1">
          <mxGeometry x="310" y="450" width="120" height="60" as="geometry" />
        </mxCell>
        <mxCell id="Ts0ha_U5xYNXK3tebFm2-10" value="The end" style="ellipse;whiteSpace=wrap;html=1;" vertex="1" parent="1">
          <mxGeometry x="330" y="550" width="80" height="40" as="geometry" />
        </mxCell>
      </root>
    </mxGraphModel>
  </diagram>
</mxfile>
